<svg width="267" height="42" viewBox="0 0 267 42" fill="none" xmlns="http://www.w3.org/2000/svg">
<circle cx="246" cy="21" r="21" fill="#EEF2F7"/>
<path d="M248.564 23.5732C249.361 23.8486 250.081 24.2339 250.722 24.729C251.364 25.2241 251.909 25.7969 252.357 26.4473C252.805 27.0977 253.149 27.8096 253.39 28.583C253.63 29.3564 253.75 30.1621 253.75 31H252.625C252.625 30.0391 252.454 29.147 252.111 28.3237C251.768 27.5005 251.295 26.7871 250.691 26.1836C250.088 25.5801 249.375 25.1069 248.551 24.7642C247.728 24.4214 246.836 24.25 245.875 24.25C245.248 24.25 244.645 24.3291 244.064 24.4873C243.484 24.6455 242.944 24.8696 242.443 25.1597C241.942 25.4497 241.488 25.7983 241.081 26.2056C240.673 26.6128 240.325 27.0669 240.035 27.5679C239.745 28.0689 239.521 28.6094 239.362 29.1895C239.204 29.7695 239.125 30.3731 239.125 31H238C238 30.1563 238.123 29.3491 238.369 28.5786C238.615 27.8081 238.964 27.1006 239.415 26.4561C239.866 25.8115 240.413 25.2432 241.054 24.751C241.696 24.2588 242.412 23.8691 243.203 23.582C242.746 23.3359 242.336 23.0371 241.973 22.6856C241.609 22.334 241.3 21.9429 241.045 21.5122C240.791 21.0816 240.594 20.6216 240.457 20.1323C240.319 19.6431 240.25 19.1406 240.25 18.625C240.25 17.8457 240.396 17.1148 240.689 16.4321C240.982 15.7495 241.384 15.1533 241.894 14.6436C242.403 14.1338 243 13.7324 243.682 13.4395C244.365 13.1465 245.096 13 245.875 13C246.654 13 247.385 13.1465 248.068 13.4395C248.75 13.7324 249.347 14.1338 249.856 14.6436C250.366 15.1533 250.768 15.7495 251.061 16.4321C251.354 17.1147 251.5 17.8457 251.5 18.625C251.5 19.1406 251.431 19.6416 251.293 20.1279C251.156 20.6143 250.959 21.0713 250.705 21.499C250.45 21.9268 250.142 22.3179 249.782 22.6724C249.421 23.0269 249.016 23.3272 248.564 23.5732L248.564 23.5732ZM241.375 18.625C241.375 19.2461 241.494 19.8291 241.731 20.374C241.968 20.9189 242.291 21.395 242.698 21.8022C243.105 22.2095 243.581 22.5317 244.126 22.769C244.671 23.0063 245.254 23.125 245.875 23.125C246.496 23.125 247.079 23.0063 247.624 22.769C248.169 22.5317 248.645 22.2095 249.052 21.8022C249.459 21.395 249.782 20.9189 250.019 20.374C250.256 19.8291 250.375 19.2461 250.375 18.625C250.375 18.0039 250.256 17.4209 250.019 16.876C249.782 16.3311 249.459 15.855 249.052 15.4478C248.645 15.0405 248.169 14.7183 247.624 14.481C247.079 14.2436 246.496 14.125 245.875 14.125C245.254 14.125 244.671 14.2436 244.126 14.481C243.581 14.7183 243.105 15.0405 242.698 15.4478C242.291 15.855 241.968 16.3311 241.731 16.876C241.494 17.4209 241.375 18.0039 241.375 18.625Z" fill="black"/>
<rect width="161" height="42" rx="21" fill="#EEF2F7"/>
<path d="M22.5927 18.6172H24.3676C24.3328 16.897 22.8662 15.679 20.6985 15.679C18.5608 15.679 16.9549 16.8821 16.9599 18.6818C16.9599 20.1435 17.999 20.9837 19.6744 21.4162L20.8328 21.7145C21.9315 21.9929 22.6574 22.3359 22.6623 23.1264C22.6574 23.9964 21.8321 24.5781 20.6289 24.5781C19.4755 24.5781 18.5806 24.0611 18.5061 22.9922H16.6914C16.766 25.0156 18.2724 26.1541 20.6439 26.1541C23.0849 26.1541 24.5018 24.9361 24.5068 23.1413C24.5018 21.3764 23.0451 20.571 21.5139 20.2081L20.5593 19.9695C19.7241 19.7706 18.8193 19.4176 18.8292 18.5675C18.8342 17.8018 19.5203 17.2401 20.6737 17.2401C21.7724 17.2401 22.4983 17.7521 22.5927 18.6172ZM28.659 26.4673L29.3501 25.4631C30.061 25.9055 30.9062 26.1392 31.8309 26.1392C34.5006 26.1392 36.5091 24.2003 36.5091 20.9091C36.5091 19.2536 36.002 17.9411 35.1569 17.0412L35.8827 15.9872L34.9829 15.3707L34.3067 16.3501C33.6008 15.9126 32.7556 15.679 31.8309 15.679C29.1562 15.679 27.1526 17.6179 27.1526 20.9091C27.1526 22.5597 27.6597 23.8722 28.5049 24.772L27.7591 25.8509L28.659 26.4673ZM34.6547 20.9091C34.6547 23.2259 33.4914 24.4837 31.8309 24.4837C31.2641 24.4837 30.752 24.3345 30.3245 24.0462L34.0979 18.5774C34.4509 19.1641 34.6547 19.9446 34.6547 20.9091ZM29.5638 23.2358C29.2109 22.6491 29.007 21.8736 29.007 20.9091C29.007 18.5923 30.1753 17.3345 31.8309 17.3345C32.3976 17.3345 32.9047 17.4787 33.3323 17.767L29.5638 23.2358ZM39.5129 26H41.3574V22.9673L42.4859 21.6349L45.5236 26H47.7409L43.7686 20.3871L47.7061 15.8182H45.454L41.4817 20.4964H41.3574V15.8182H39.5129V26ZM51.2767 26.1094C51.8633 26.1094 52.3654 25.6222 52.3704 25.0156C52.3654 24.419 51.8633 23.9318 51.2767 23.9318C50.6701 23.9318 50.1779 24.419 50.1829 25.0156C50.1779 25.6222 50.6701 26.1094 51.2767 26.1094ZM56.5972 26.1094C57.1839 26.1094 57.686 25.6222 57.691 25.0156C57.686 24.419 57.1839 23.9318 56.5972 23.9318C55.9907 23.9318 55.4985 24.419 55.5035 25.0156C55.4985 25.6222 55.9907 26.1094 56.5972 26.1094ZM61.9178 26.1094C62.5044 26.1094 63.0065 25.6222 63.0115 25.0156C63.0065 24.419 62.5044 23.9318 61.9178 23.9318C61.3112 23.9318 60.819 24.419 60.824 25.0156C60.819 25.6222 61.3112 26.1094 61.9178 26.1094Z" fill="#748094"/>
<path d="M142 29.3848C142 29.5488 141.95 29.6924 141.851 29.8154C141.751 29.9385 141.613 30 141.437 30C141.285 30 141.153 29.9444 141.042 29.833L134.143 22.9424C133.58 23.4053 132.963 23.7598 132.292 24.0059C131.622 24.252 130.92 24.375 130.188 24.375C129.619 24.375 129.071 24.3018 128.544 24.1553C128.017 24.0088 127.524 23.8008 127.067 23.5313C126.61 23.2617 126.193 22.938 125.815 22.5601C125.437 22.1821 125.113 21.7647 124.844 21.3076C124.574 20.8506 124.366 20.3584 124.22 19.8311C124.073 19.3037 124 18.7559 124 18.1875C124 17.6191 124.073 17.0713 124.22 16.5439C124.366 16.0166 124.574 15.5244 124.844 15.0674C125.113 14.6103 125.437 14.1929 125.815 13.8149C126.193 13.437 126.61 13.1133 127.067 12.8438C127.524 12.5742 128.017 12.3662 128.544 12.2197C129.071 12.0732 129.619 12 130.188 12C130.756 12 131.304 12.0732 131.831 12.2197C132.358 12.3662 132.851 12.5742 133.308 12.8438C133.765 13.1133 134.182 13.437 134.56 13.8149C134.938 14.1929 135.262 14.6103 135.531 15.0674C135.801 15.5244 136.009 16.0166 136.155 16.5439C136.302 17.0713 136.375 17.6191 136.375 18.1875C136.375 18.9199 136.252 19.6216 136.006 20.2925C135.76 20.9634 135.405 21.5801 134.942 22.1426C135.03 22.2305 135.199 22.3975 135.448 22.6436C135.697 22.8897 135.996 23.1826 136.344 23.5225C136.693 23.8623 137.074 24.2358 137.487 24.6431C137.9 25.0503 138.316 25.4634 138.735 25.8823C139.154 26.3013 139.56 26.71 139.952 27.1084C140.345 27.5068 140.693 27.8672 140.998 28.1895C141.303 28.5117 141.546 28.7798 141.728 28.9937C141.909 29.2075 142 29.3379 142 29.3848L142 29.3848ZM130.187 23.25C130.885 23.25 131.541 23.1167 132.156 22.8501C132.771 22.5835 133.308 22.2217 133.765 21.7647C134.222 21.3076 134.583 20.7715 134.85 20.1563C135.117 19.541 135.25 18.8848 135.25 18.1875C135.25 17.4903 135.117 16.834 134.85 16.2188C134.583 15.6035 134.222 15.0674 133.765 14.6104C133.308 14.1533 132.771 13.7915 132.156 13.5249C131.541 13.2583 130.885 13.125 130.187 13.125C129.49 13.125 128.834 13.2583 128.219 13.5249C127.604 13.7915 127.067 14.1533 126.61 14.6104C126.153 15.0674 125.791 15.6035 125.525 16.2188C125.258 16.834 125.125 17.4903 125.125 18.1875C125.125 18.8848 125.258 19.541 125.525 20.1563C125.791 20.7715 126.153 21.3076 126.61 21.7647C127.067 22.2217 127.604 22.5835 128.219 22.8501C128.834 23.1167 129.49 23.25 130.187 23.25Z" fill="#748094"/>
<circle cx="190" cy="21" r="21" fill="#EEF2F7"/>
<path d="M197.429 26.1428V27.4286H192.286C192.286 27.7835 192.219 28.1166 192.085 28.428C191.951 28.7394 191.767 29.0123 191.532 29.2466C191.298 29.481 191.025 29.6652 190.714 29.7991C190.402 29.933 190.069 30 189.714 30C189.359 30 189.026 29.933 188.715 29.7991C188.403 29.6652 188.131 29.481 187.896 29.2466C187.662 29.0123 187.478 28.7394 187.344 28.428C187.21 28.1166 187.143 27.7835 187.143 27.4286H182V26.1428H183.286V18.4286C183.286 17.8393 183.363 17.2701 183.517 16.721C183.671 16.1719 183.887 15.6596 184.165 15.1841C184.443 14.7087 184.777 14.2751 185.169 13.8834C185.561 13.4916 185.994 13.1568 186.47 12.8789C186.945 12.601 187.458 12.385 188.007 12.231C188.556 12.077 189.125 12 189.714 12C190.304 12 190.873 12.077 191.422 12.231C191.971 12.385 192.483 12.601 192.959 12.8789C193.434 13.1568 193.868 13.4916 194.259 13.8834C194.651 14.2751 194.986 14.7087 195.264 15.1841C195.542 15.6596 195.758 16.1719 195.912 16.721C196.066 17.2701 196.143 17.8393 196.143 18.4286V26.1428H197.429ZM194.857 26.1428V18.4286C194.857 17.7187 194.722 17.0525 194.45 16.4297C194.179 15.8069 193.811 15.2628 193.345 14.7974C192.88 14.332 192.336 13.9637 191.713 13.6925C191.09 13.4213 190.424 13.2857 189.714 13.2857C189.004 13.2857 188.338 13.4213 187.715 13.6925C187.093 13.9637 186.549 14.332 186.083 14.7974C185.618 15.2628 185.249 15.8069 184.978 16.4297C184.707 17.0524 184.571 17.7187 184.571 18.4286V26.1428H194.857ZM189.714 28.7143C189.895 28.7143 190.063 28.6808 190.217 28.6138C190.371 28.5469 190.506 28.4548 190.623 28.3376C190.741 28.2204 190.833 28.0848 190.9 27.9308C190.967 27.7768 191 27.6094 191 27.4286H188.429C188.429 27.6094 188.462 27.7768 188.529 27.9308C188.596 28.0848 188.688 28.2204 188.805 28.3376C188.922 28.4548 189.058 28.5469 189.212 28.6138C189.366 28.6808 189.533 28.7143 189.714 28.7143Z" fill="#1B202B"/>
<circle cx="195" cy="14" r="4" fill="#ED5539"/>
</svg>
